<svg width="33" height="33" viewBox="0 0 33 33" fill="none" xmlns="http://www.w3.org/2000/svg">
<path d="M12.5 15.5C18.0228 15.5 22.5 13.4853 22.5 11C22.5 8.51472 18.0228 6.5 12.5 6.5C6.97715 6.5 2.5 8.51472 2.5 11C2.5 13.4853 6.97715 15.5 12.5 15.5Z" stroke="black" stroke-width="2" stroke-linecap="round" stroke-linejoin="round"/>
<path d="M2.5 11V16C2.5 18.4875 6.975 20.5 12.5 20.5C18.025 20.5 22.5 18.4875 22.5 16V11" stroke="black" stroke-width="2" stroke-linecap="round" stroke-linejoin="round"/>
<path d="M8.5 15.125V20.125" stroke="black" stroke-width="2" stroke-linecap="round" stroke-linejoin="round"/>
<path d="M22.5 12.5875C27.0625 13.0125 30.5 14.825 30.5 17C30.5 19.4875 26.025 21.5 20.5 21.5C18.05 21.5 15.8 21.1 14.0625 20.45" stroke="black" stroke-width="2" stroke-linecap="round" stroke-linejoin="round"/>
<path d="M10.5 20.4125V22C10.5 24.4875 14.975 26.5 20.5 26.5C26.025 26.5 30.5 24.4875 30.5 22V17" stroke="black" stroke-width="2" stroke-linecap="round" stroke-linejoin="round"/>
<path d="M24.5 21.125V26.125" stroke="black" stroke-width="2" stroke-linecap="round" stroke-linejoin="round"/>
<path d="M16.5 15.125V26.125" stroke="black" stroke-width="2" stroke-linecap="round" stroke-linejoin="round"/>
</svg>
