<svg width="32" height="33" viewBox="0 0 32 33" fill="none" xmlns="http://www.w3.org/2000/svg">
<path d="M16.55 24.3375L22.85 28.3375C23.6625 28.85 24.6625 28.0875 24.425 27.15L22.6 19.975C22.5506 19.7761 22.5585 19.5673 22.6226 19.3727C22.6868 19.1781 22.8046 19.0056 22.9625 18.875L28.6125 14.1625C29.35 13.55 28.975 12.3125 28.0125 12.25L20.6375 11.775C20.4363 11.7633 20.2428 11.6932 20.0808 11.5733C19.9187 11.4535 19.7951 11.289 19.725 11.1L16.975 4.175C16.9022 3.97488 16.7696 3.802 16.5952 3.67984C16.4207 3.55768 16.2129 3.49216 16 3.49216C15.787 3.49216 15.5793 3.55768 15.4048 3.67984C15.2304 3.802 15.0978 3.97488 15.025 4.175L12.275 11.1C12.2049 11.289 12.0813 11.4535 11.9192 11.5733C11.7572 11.6932 11.5637 11.7633 11.3625 11.775L3.98749 12.25C3.02499 12.3125 2.64999 13.55 3.38749 14.1625L9.0375 18.875C9.19541 19.0056 9.31323 19.1781 9.37736 19.3727C9.4415 19.5673 9.44934 19.7761 9.39999 19.975L7.71249 26.625C7.42499 27.75 8.62499 28.6625 9.58749 28.05L15.45 24.3375C15.6144 24.233 15.8052 24.1774 16 24.1774C16.1948 24.1774 16.3856 24.233 16.55 24.3375Z" fill="none" stroke="black" stroke-width="2" stroke-linecap="round" stroke-linejoin="round"/>
</svg>
