<svg width="32" height="33" viewBox="0 0 32 33" fill="none" xmlns="http://www.w3.org/2000/svg">
<path d="M16.7126 26.6831L26.8375 16.5581C29.325 14.0581 29.6875 9.97064 27.3375 7.35814C26.7482 6.69978 26.0308 6.1685 25.2292 5.79675C24.4276 5.425 23.5586 5.2206 22.6753 5.19603C21.792 5.17146 20.913 5.32725 20.092 5.65386C19.2709 5.98047 18.5251 6.47106 17.9001 7.09565L16.0001 9.00815L14.3626 7.35814C11.8626 4.87065 7.77505 4.50814 5.16255 6.85814C4.50419 7.4475 3.9729 8.1649 3.60115 8.96652C3.22941 9.76814 3.02501 10.6371 3.00044 11.5204C2.97587 12.4037 3.13165 13.2827 3.45827 14.1037C3.78488 14.9248 4.27547 15.6706 4.90005 16.2956L15.2876 26.6831C15.4771 26.8709 15.7332 26.9763 16.0001 26.9763C16.2669 26.9763 16.523 26.8709 16.7126 26.6831V26.6831Z" stroke="black" stroke-width="2" stroke-linecap="round" stroke-linejoin="round"/>
</svg>
