<svg width="32" height="33" viewBox="0 0 32 33" fill="none" xmlns="http://www.w3.org/2000/svg">
<path d="M10 29.5C11.1046 29.5 12 28.6046 12 27.5C12 26.3954 11.1046 25.5 10 25.5C8.89543 25.5 8 26.3954 8 27.5C8 28.6046 8.89543 29.5 10 29.5Z" fill="black"/>
<path d="M23 29.5C24.1046 29.5 25 28.6046 25 27.5C25 26.3954 24.1046 25.5 23 25.5C21.8954 25.5 21 26.3954 21 27.5C21 28.6046 21.8954 29.5 23 29.5Z" fill="black"/>
<path d="M5.2875 9.5H27.7125L24.4125 21.05C24.2948 21.4692 24.0426 21.8381 23.6948 22.1001C23.3471 22.362 22.9229 22.5025 22.4875 22.5H10.5125C10.0771 22.5025 9.65293 22.362 9.30515 22.1001C8.95738 21.8381 8.70524 21.4692 8.5875 21.05L4.0625 5.225C4.0027 5.01594 3.8764 4.83207 3.70271 4.70125C3.52903 4.57042 3.31744 4.49977 3.1 4.5H1" stroke="black" stroke-width="2" stroke-linecap="round" stroke-linejoin="round"/>
</svg>
