<svg width="33" height="32" viewBox="0 0 33 32" fill="none" xmlns="http://www.w3.org/2000/svg">
<path d="M6.17497 22.1251C4.68608 19.6131 4.16528 16.644 4.71035 13.7753C5.25543 10.9065 6.82888 8.33537 9.13532 6.5445C11.4418 4.75364 14.3226 3.86623 17.2369 4.04888C20.1513 4.23152 22.8988 5.47165 24.9636 7.53646C27.0284 9.60127 28.2685 12.3488 28.4512 15.2631C28.6338 18.1775 27.7464 21.0583 25.9556 23.3647C24.1647 25.6712 21.5935 27.2446 18.7248 27.7897C15.856 28.3348 12.887 27.814 10.375 26.3251L6.22497 27.5001C6.05494 27.5498 5.87467 27.5529 5.70304 27.509C5.53142 27.4651 5.37476 27.3758 5.2495 27.2506C5.12423 27.1253 5.03497 26.9686 4.99107 26.797C4.94717 26.6254 4.95024 26.4451 4.99997 26.2751L6.17497 22.1251Z" fill="white" stroke="black" stroke-width="2" stroke-linecap="round" stroke-linejoin="round"/>
<path d="M19.5125 23C18.1967 23.0033 16.8933 22.7466 15.677 22.2446C14.4608 21.7426 13.3557 21.0052 12.4253 20.0748C11.4949 19.1444 10.7575 18.0393 10.2555 16.823C9.75346 15.6068 9.49673 14.3033 9.50003 12.9875C9.50334 12.0614 9.87355 11.1744 10.5296 10.5207C11.1856 9.86705 12.0739 9.50002 13 9.50003C13.1528 9.49881 13.3031 9.5388 13.4351 9.61579C13.5671 9.69278 13.6759 9.80392 13.75 9.93753L15.2125 12.4875C15.2995 12.6425 15.3441 12.8177 15.3419 12.9955C15.3397 13.1732 15.2908 13.3472 15.2 13.5L14.025 15.4625C14.6269 16.8014 15.6987 17.8732 17.0375 18.475L19 17.3C19.1529 17.2093 19.3269 17.1603 19.5046 17.1581C19.6823 17.1559 19.8575 17.2006 20.0125 17.2875L22.5625 18.75C22.6961 18.8242 22.8073 18.933 22.8843 19.0649C22.9613 19.1969 23.0013 19.3472 23 19.5C22.9968 20.4251 22.6287 21.3116 21.9757 21.9669C21.3227 22.6222 20.4376 22.9934 19.5125 23Z" fill="white" stroke="black" stroke-width="2" stroke-linecap="round" stroke-linejoin="round"/>
</svg>
