<svg width="24" height="24" viewBox="0 0 24 24" fill="none" xmlns="http://www.w3.org/2000/svg">
<path fill-rule="evenodd" clip-rule="evenodd" d="M9 19C4.7 20.4 4.7 16.5 3 16L9 19ZM15 21V17.5C15 16.5 15.1 16.1 14.5 15.5C17.3 15.2 20 14.1 20 9.49995C19.9988 8.30491 19.5325 7.15726 18.7 6.29995C19.0905 5.26192 19.0545 4.11158 18.6 3.09995C18.6 3.09995 17.5 2.79995 15.1 4.39995C13.0672 3.87054 10.9328 3.87054 8.9 4.39995C6.5 2.79995 5.4 3.09995 5.4 3.09995C4.94548 4.11158 4.90953 5.26192 5.3 6.29995C4.46745 7.15726 4.00122 8.30491 4 9.49995C4 14.1 6.7 15.2 9.5 15.5C8.9 16.1 8.9 16.7 9 17.5V21" fill="white"/>
<path d="M9.30959 19.9508C9.83474 19.7798 10.1219 19.2155 9.95087 18.6904C9.77989 18.1652 9.21557 17.8781 8.69041 18.0491L9.30959 19.9508ZM3.28217 15.0406C2.75232 14.8847 2.19647 15.1879 2.04063 15.7178C1.8848 16.2476 2.18799 16.8035 2.71783 16.9593L3.28217 15.0406ZM14 21C14 21.5522 14.4477 22 15 22C15.5523 22 16 21.5522 16 21H14ZM14.5 15.5L14.3935 14.5056C14.0105 14.5467 13.6852 14.8039 13.557 15.1671C13.4288 15.5302 13.5206 15.9347 13.7929 16.2071L14.5 15.5ZM20 9.49995H21V9.49893L20 9.49995ZM18.7 6.29995L17.764 5.94788C17.6277 6.31029 17.7129 6.71884 17.9826 6.99662L18.7 6.29995ZM18.6 3.09995L19.5122 2.69012C19.3896 2.41742 19.1515 2.21385 18.8631 2.13519L18.6 3.09995ZM15.1 4.39995L14.848 5.36767C15.1239 5.43954 15.4174 5.39018 15.6547 5.232L15.1 4.39995ZM8.9 4.39995L8.3453 5.232C8.58257 5.39018 8.87608 5.43954 9.15203 5.36767L8.9 4.39995ZM5.4 3.09995L5.13688 2.13519C4.84846 2.21385 4.61036 2.41742 4.48784 2.69012L5.4 3.09995ZM5.3 6.29995L6.01739 6.99662C6.28715 6.71884 6.3723 6.31029 6.23597 5.94788L5.3 6.29995ZM4 9.49995L3 9.49893V9.49995H4ZM9.5 15.5L10.2071 16.2071C10.4794 15.9347 10.5712 15.5302 10.443 15.1671C10.3148 14.8039 9.98945 14.5467 9.60653 14.5056L9.5 15.5ZM9 17.5H10C10 17.4585 9.99742 17.4171 9.99228 17.3759L9 17.5ZM8 21C8 21.5522 8.44772 22 9 22C9.55228 22 10 21.5522 10 21H8ZM8.69041 18.0491C7.7428 18.3576 7.14521 18.3377 6.75686 18.2291C6.37504 18.1223 6.07555 17.8966 5.77961 17.5563C5.42934 17.1535 5.24753 16.814 4.85399 16.2819C4.53123 15.8455 4.04498 15.2649 3.28217 15.0406L2.71783 16.9593C2.80502 16.985 2.95627 17.0794 3.24601 17.4712C3.46497 17.7672 3.87066 18.4089 4.27039 18.8686C4.72445 19.3908 5.33746 19.9088 6.21814 20.1552C7.09229 20.3997 8.1072 20.3423 9.30959 19.9508L8.69041 18.0491ZM16 21V17.5H14V21H16ZM16 17.5C16 17.1103 16.0295 16.5944 15.9614 16.1856C15.8718 15.648 15.6298 15.2155 15.2071 14.7928L13.7929 16.2071C13.8943 16.3085 13.9354 16.3708 13.9534 16.4038C13.9683 16.4312 13.9796 16.4601 13.9886 16.5143C13.9997 16.5811 14.0063 16.6772 14.0063 16.85C14.0063 16.9348 14.0048 17.0263 14.0032 17.137C14.0017 17.2451 14 17.3671 14 17.5H16ZM14.6065 16.4943C16.0731 16.3371 17.697 15.9573 18.9546 14.8684C20.255 13.7424 21 12.0067 21 9.49995H19C19 11.5932 18.395 12.7075 17.6454 13.3565C16.853 14.0426 15.7269 14.3628 14.3935 14.5056L14.6065 16.4943ZM21 9.49893C20.9985 8.04411 20.4309 6.64696 19.4174 5.60328L17.9826 6.99662C18.6342 7.66756 18.999 8.56572 19 9.50097L21 9.49893ZM19.636 6.65203C20.1194 5.36684 20.0749 3.94261 19.5122 2.69012L17.6878 3.50978C18.0341 4.28054 18.0615 5.15699 17.764 5.94788L19.636 6.65203ZM18.6 3.09995C18.8631 2.13519 18.8622 2.13494 18.8613 2.13469C18.861 2.13461 18.8601 2.13437 18.8595 2.1342C18.8582 2.13387 18.857 2.13353 18.8557 2.1332C18.8532 2.13252 18.8506 2.13184 18.8479 2.13115C18.8425 2.12977 18.8368 2.12836 18.8309 2.12693C18.819 2.12406 18.8059 2.1211 18.7917 2.11813C18.7632 2.11218 18.7302 2.10618 18.6926 2.10069C18.6173 2.08968 18.5241 2.08079 18.4128 2.07832C18.1899 2.07337 17.8986 2.09429 17.5376 2.17277C16.8163 2.32958 15.8266 2.71371 14.5453 3.5679L15.6547 5.232C16.7734 4.48619 17.5337 4.22033 17.9624 4.12713C18.1764 4.08061 18.3101 4.07653 18.3684 4.07783C18.3978 4.07848 18.4093 4.08053 18.4035 4.07968C18.4007 4.07927 18.3936 4.07815 18.3824 4.07581C18.3769 4.07465 18.3703 4.07318 18.3627 4.07135C18.3589 4.07044 18.3548 4.06943 18.3505 4.06833C18.3484 4.06778 18.3462 4.0672 18.3439 4.0666C18.3428 4.0663 18.3416 4.06599 18.3404 4.06568C18.3398 4.06552 18.339 4.06528 18.3387 4.0652C18.3378 4.06496 18.3369 4.06471 18.6 3.09995ZM15.352 3.43223C13.154 2.85978 10.846 2.85978 8.64797 3.43223L9.15203 5.36767C11.0195 4.8813 12.9805 4.8813 14.848 5.36767L15.352 3.43223ZM9.4547 3.5679C8.17342 2.71371 7.18371 2.32958 6.46243 2.17277C6.10141 2.09429 5.81015 2.07337 5.58716 2.07832C5.47594 2.08079 5.38274 2.08968 5.30742 2.10069C5.2698 2.10618 5.23678 2.11218 5.20832 2.11813C5.1941 2.1211 5.18104 2.12406 5.16913 2.12693C5.16317 2.12836 5.15751 2.12977 5.15213 2.13115C5.14945 2.13184 5.14683 2.13252 5.14429 2.1332C5.14302 2.13353 5.14177 2.13387 5.14053 2.1342C5.13991 2.13437 5.139 2.13461 5.13869 2.13469C5.13779 2.13494 5.13688 2.13519 5.4 3.09995C5.66312 4.06471 5.66222 4.06496 5.66133 4.0652C5.66104 4.06528 5.66015 4.06552 5.65957 4.06568C5.6584 4.06599 5.65725 4.0663 5.65611 4.0666C5.65384 4.0672 5.65163 4.06778 5.64948 4.06833C5.64518 4.06943 5.64113 4.07044 5.63733 4.07135C5.62973 4.07318 5.62314 4.07465 5.61756 4.07581C5.60639 4.07815 5.59934 4.07927 5.59649 4.07968C5.59069 4.08053 5.60219 4.07848 5.63159 4.07783C5.68985 4.07653 5.82359 4.08061 6.03757 4.12713C6.46629 4.22033 7.22658 4.48619 8.3453 5.232L9.4547 3.5679ZM4.48784 2.69012C3.9251 3.94261 3.88059 5.36684 4.36403 6.65203L6.23597 5.94788C5.93847 5.15699 5.96586 4.28054 6.31216 3.50978L4.48784 2.69012ZM4.58261 5.60328C3.56907 6.64696 3.00148 8.04411 3 9.49893L5 9.50097C5.00095 8.56572 5.36583 7.66756 6.01739 6.99662L4.58261 5.60328ZM3 9.49995C3 12.0067 3.74496 13.7424 5.04542 14.8684C6.303 15.9573 7.92694 16.3371 9.39347 16.4943L9.60653 14.5056C8.27306 14.3628 7.14701 14.0426 6.35458 13.3565C5.60504 12.7075 5 11.5932 5 9.49995H3ZM8.79289 14.7928C8.35957 15.2262 8.10785 15.7038 8.00549 16.2361C7.91091 16.7279 7.95644 17.2137 8.00772 17.624L9.99228 17.3759C9.94356 16.9862 9.93909 16.772 9.96951 16.6138C9.99215 16.4961 10.0404 16.3737 10.2071 16.2071L8.79289 14.7928ZM8 17.5V21H10V17.5H8Z" fill="black"/>
</svg>
